<?xml version="1.0" encoding="UTF-8" standalone="no"?>
<svg width="593px" height="657px" viewBox="0 0 593 657" version="1.1" xmlns="http://www.w3.org/2000/svg" xmlns:xlink="http://www.w3.org/1999/xlink" xmlns:sketch="http://www.bohemiancoding.com/sketch/ns">
    <!-- Generator: Sketch 3.4.4 (17249) - http://www.bohemiancoding.com/sketch -->
    <title>qulture-rocket-lauch</title>
    <desc>Created with Sketch.</desc>
    <defs></defs>
    <g id="Page-1" stroke="none" stroke-width="1" fill="none" fill-rule="evenodd" sketch:type="MSPage">
        <g id="Group-Copy-2" sketch:type="MSLayerGroup" transform="translate(4.000000, 0.000000)">
            <ellipse id="Oval-3-Copy" stroke="#01AE92" stroke-width="8" fill="#1D3848" sketch:type="MSShapeGroup" cx="292.5" cy="360.5" rx="292.5" ry="292.5"></ellipse>
            <path d="M569.106163,455.85137 C579.406736,425.964592 585,393.885484 585,360.5 C585,198.956711 454.043289,68 292.5,68 C130.956711,68 0,198.956711 0,360.5 C0,397.496549 6.86866525,432.888836 19.4003454,465.471209 C37.5900533,447.263463 62.7296652,436 90.5,436 C125.604292,436 156.504869,453.998245 174.477282,481.270287 C179.69494,480.434331 185.046749,480 190.5,480 C228.155613,480 260.974267,500.709478 278.18768,531.360151 C294.812053,519.187244 315.316691,512 337.5,512 C347.79268,512 357.723976,513.547272 367.073978,516.421907 C383.971574,496.027336 408.773013,482.418835 436.782816,480.291883 C455.155773,456.39873 484.029603,441 516.5,441 C535.786552,441 553.80422,446.43274 569.106161,455.851377 Z" id="Oval-3" fill="#01AE92" sketch:type="MSShapeGroup"></path>
            <path d="M329.634749,512.303236 L304.5,419 L277.5,419 L254.801494,503.259606 C264.20474,511.09623 272.154668,520.617607 278.187675,531.360142 C292.828442,520.639707 310.478732,513.786137 329.63474,512.303237 Z" id="Rectangle-11" fill="#1D3848" sketch:type="MSShapeGroup"></path>
            <g id="Oval-2-+-Oval-29" transform="translate(193.000000, 0.000000)" sketch:type="MSShapeGroup">
                <path d="M72.1124937,377.682568 C65.3990741,375.077416 59.8486946,371.242349 55.265146,366.04056 C27.9821092,406.065977 11.0585581,450.406692 0.112495544,330 C-1.51772383,312.067586 14.7909604,292.141961 34.6871547,274.826402 C34.2590937,261.64222 34.1124955,247.064766 34.1124955,231 C34.1124955,119.990765 93.4378444,2.32048109e-15 99.6124955,0 C105.787147,0 165.112496,119.990765 165.112496,231 C165.112496,247.137087 164.964574,261.773441 164.532036,275.004375 C184.14323,292.254162 200.519582,312.088194 200.112496,330 C197.326086,452.602041 176.696107,404.394304 145.765554,363.856568 C140.855141,370.183399 134.733123,374.725373 127.112496,377.682569 L127.112496,391.007613 C127.112496,402.049104 118.153386,411 107.120109,411 L92.104882,411 C81.0633919,411 72.1124955,402.040891 72.1124955,391.007613 L72.1124955,377.682568 Z" id="Oval-2" fill="#1D3848"></path>
                <ellipse id="Oval-29" fill="#01AE92" cx="99" cy="190" rx="27" ry="27"></ellipse>
            </g>
            <g id="Group-Copy" transform="translate(23.000000, 94.000000)" fill="#1D3848" sketch:type="MSShapeGroup">
                <path d="M82.4602791,81.3418544 L74.2925409,97.7799988 L75.4381444,79.4602791 L59,71.2925409 L77.3197197,72.4381444 L85.4874579,56 L84.3418544,74.3197197 L100.779999,82.4874579 L82.4602791,81.3418544 L82.4602791,81.3418544 Z" id="Star-1"></path>
                <path d="M14.0379845,195.943866 L9.15063509,205.779999 L9.83613265,194.817983 L0,189.930634 L10.9620155,190.616131 L15.8493649,180.779999 L15.1638674,191.742014 L25,196.629364 L14.0379845,195.943866 L14.0379845,195.943866 Z" id="Star-1-Copy"></path>
                <path d="M39.0536744,128.458992 L37.2942286,132 L37.5410078,128.053674 L34,126.294229 L37.9463256,126.541008 L39.7057714,123 L39.4589922,126.946326 L43,128.705771 L39.0536744,128.458992 L39.0536744,128.458992 Z" id="Star-1-Copy-7"></path>
                <path d="M49.0536744,152.458992 L47.2942286,156 L47.5410078,152.053674 L44,150.294229 L47.9463256,150.541008 L49.7057714,147 L49.4589922,150.946326 L53,152.705771 L49.0536744,152.458992 L49.0536744,152.458992 Z" id="Star-1-Copy-8"></path>
                <path d="M62.5458295,191.31143 L59.2224319,198 L59.6885702,190.545829 L53,187.222432 L60.4541705,187.68857 L63.7775681,181 L63.3114298,188.454171 L70,191.777568 L62.5458295,191.31143 L62.5458295,191.31143 Z" id="Star-1-Copy-9"></path>
                <path d="M145.214698,108.835969 L138.176915,123 L139.164031,107.214698 L125,100.176915 L140.785302,101.164031 L147.823085,87 L146.835969,102.785302 L161,109.823085 L145.214698,108.835969 L145.214698,108.835969 Z" id="Star-1-Copy-2"></path>
                <path d="M99.4764652,151.557313 L94.7846097,161 L95.4426873,150.476465 L86,145.78461 L96.5235348,146.442687 L101.21539,137 L100.557313,147.523535 L110,152.21539 L99.4764652,151.557313 L99.4764652,151.557313 Z" id="Star-1-Copy-3"></path>
                <path d="M180.861271,8.49176572 L178.124356,14 L178.508234,7.86127134 L173,5.12435565 L179.138729,5.50823428 L181.875644,3.46389584e-14 L181.491766,6.13872866 L187,8.87564435 L180.861271,8.49176572 L180.861271,8.49176572 Z" id="Star-1-Copy-4"></path>
                <path d="M136.861271,32.4917657 L134.124356,38 L134.508234,31.8612713 L129,29.1243557 L135.138729,29.5082343 L137.875644,24 L137.491766,30.1387287 L143,32.8756443 L136.861271,32.4917657 L136.861271,32.4917657 Z" id="Star-1-Copy-5"></path>
                <path d="M148.053674,54.4589922 L146.294229,58 L146.541008,54.0536744 L143,52.2942286 L146.946326,52.5410078 L148.705771,49 L148.458992,52.9463256 L152,54.7057714 L148.053674,54.4589922 L148.053674,54.4589922 Z" id="Star-1-Copy-6"></path>
            </g>
            <g id="Group-Copy-3" transform="translate(452.500000, 195.000000) rotate(-90.000000) translate(-452.500000, -195.000000) translate(359.000000, 92.000000)" fill="#1D3848" sketch:type="MSShapeGroup">
                <path d="M82.4602791,81.3418544 L74.2925409,97.7799988 L75.4381444,79.4602791 L59,71.2925409 L77.3197197,72.4381444 L85.4874579,56 L84.3418544,74.3197197 L100.779999,82.4874579 L82.4602791,81.3418544 L82.4602791,81.3418544 Z" id="Star-1"></path>
                <path d="M14.0379845,195.943866 L9.15063509,205.779999 L9.83613265,194.817983 L0,189.930634 L10.9620155,190.616131 L15.8493649,180.779999 L15.1638674,191.742014 L25,196.629364 L14.0379845,195.943866 L14.0379845,195.943866 Z" id="Star-1-Copy"></path>
                <path d="M39.0536744,128.458992 L37.2942286,132 L37.5410078,128.053674 L34,126.294229 L37.9463256,126.541008 L39.7057714,123 L39.4589922,126.946326 L43,128.705771 L39.0536744,128.458992 L39.0536744,128.458992 Z" id="Star-1-Copy-7"></path>
                <path d="M49.0536744,152.458992 L47.2942286,156 L47.5410078,152.053674 L44,150.294229 L47.9463256,150.541008 L49.7057714,147 L49.4589922,150.946326 L53,152.705771 L49.0536744,152.458992 L49.0536744,152.458992 Z" id="Star-1-Copy-8"></path>
                <path d="M62.5458295,191.31143 L59.2224319,198 L59.6885702,190.545829 L53,187.222432 L60.4541705,187.68857 L63.7775681,181 L63.3114298,188.454171 L70,191.777568 L62.5458295,191.31143 L62.5458295,191.31143 Z" id="Star-1-Copy-9"></path>
                <path d="M145.214698,108.835969 L138.176915,123 L139.164031,107.214698 L125,100.176915 L140.785302,101.164031 L147.823085,87 L146.835969,102.785302 L161,109.823085 L145.214698,108.835969 L145.214698,108.835969 Z" id="Star-1-Copy-2"></path>
                <path d="M99.4764652,151.557313 L94.7846097,161 L95.4426873,150.476465 L86,145.78461 L96.5235348,146.442687 L101.21539,137 L100.557313,147.523535 L110,152.21539 L99.4764652,151.557313 L99.4764652,151.557313 Z" id="Star-1-Copy-3"></path>
                <path d="M180.861271,8.49176572 L178.124356,14 L178.508234,7.86127134 L173,5.12435565 L179.138729,5.50823428 L181.875644,3.46389584e-14 L181.491766,6.13872866 L187,8.87564435 L180.861271,8.49176572 L180.861271,8.49176572 Z" id="Star-1-Copy-4"></path>
                <path d="M136.861271,32.4917657 L134.124356,38 L134.508234,31.8612713 L129,29.1243557 L135.138729,29.5082343 L137.875644,24 L137.491766,30.1387287 L143,32.8756443 L136.861271,32.4917657 L136.861271,32.4917657 Z" id="Star-1-Copy-5"></path>
                <path d="M148.053674,54.4589922 L146.294229,58 L146.541008,54.0536744 L143,52.2942286 L146.946326,52.5410078 L148.705771,49 L148.458992,52.9463256 L152,54.7057714 L148.053674,54.4589922 L148.053674,54.4589922 Z" id="Star-1-Copy-6"></path>
            </g>
        </g>
    </g>
</svg>